<?xml version="1.0" standalone="no"?>
<svg viewBox="0 0 200 200" xmlns="http://www.w3.org/2000/svg">
  <path fill="#00CBA9" d="M45.8,-63.8C60.4,-52.5,73.9,-40.5,78.6,-25.6C83.3,-10.8,79.2,6.8,73.2,23.3C67.1,39.8,59.2,55.2,46.7,59.7C34.2,64.1,17.1,57.7,2.9,53.8C-11.4,49.8,-22.8,48.4,-38.3,44.9C-53.8,41.4,-73.5,35.8,-81.4,23.6C-89.4,11.3,-85.7,-7.7,-77.2,-22.4C-68.8,-37.2,-55.6,-47.8,-41.9,-59.4C-28.3,-71,-14.1,-83.7,0.7,-84.7C15.6,-85.8,31.3,-75.1,45.8,-63.8Z" transform="translate(100 100)" />
</svg>
